<?xml version="1.0" encoding="utf-8"?>
<!-- Generator: Adobe Illustrator 16.0.3, SVG Export Plug-In . SVG Version: 6.00 Build 0)  -->
<!DOCTYPE svg PUBLIC "-//W3C//DTD SVG 1.1//EN" "http://www.w3.org/Graphics/SVG/1.1/DTD/svg11.dtd">
<svg version="1.1" id="Layer_1" xmlns="http://www.w3.org/2000/svg" xmlns:xlink="http://www.w3.org/1999/xlink" x="0px" y="0px"
	 width="28px" height="49px" viewBox="10 -7 28 49" enable-background="new 10 -7 28 49" xml:space="preserve">
<g>
	<polygon fill="#F20B0B" points="18.75,17.354 24,42 29.25,17.354 	"/>
	<polygon fill="#3D0303" points="26.926,28.268 29.25,17.354 18.75,17.354 20.556,25.832 	"/>
	<path fill="#730505" d="M38,7c0,7.731-6.268,14-14,14c-7.731,0-14-6.268-14-14S16.269-7,24-7C31.732-7,38-0.731,38,7z M24,0
		c-3.864,0-7,3.135-7,7c0,3.866,3.136,7,7,7s7-3.134,7-7C31,3.135,27.864,0,24,0z"/>
	<path fill="#F20B0B" d="M24,19.25c-6.755,0-12.25-5.495-12.25-12.25S17.245-5.25,24-5.25S36.25,0.245,36.25,7
		S30.755,19.25,24,19.25z M24-1.75c-4.826,0-8.75,3.924-8.75,8.75s3.924,8.75,8.75,8.75c4.824,0,8.75-3.924,8.75-8.75
		S28.824-1.75,24-1.75z"/>
	<path fill="#F53C3C" d="M31,7h1.75c0,4.824-3.926,8.75-8.75,8.75S15.25,11.824,15.25,7H17c0,3.866,3.136,7,7,7S31,10.866,31,7z
		 M24-5.25c6.755,0,12.25,5.495,12.25,12.25H38c0-7.731-6.268-14-14-14C16.269-7,10-0.731,10,7h1.75
		C11.75,0.245,17.245-5.25,24-5.25z"/>
</g>
</svg>
